<?xml version="1.0" encoding="utf-8"?>
<!-- Generator: Adobe Illustrator 21.0.0, SVG Export Plug-In . SVG Version: 6.00 Build 0)  -->
<svg version="1.1"
	 id="layer1" xmlns:cc="http://web.resource.org/cc/" xmlns:dc="http://purl.org/dc/elements/1.1/" xmlns:rdf="http://www.w3.org/1999/02/22-rdf-syntax-ns#" xmlns:svg="http://www.w3.org/2000/svg"
	 xmlns="http://www.w3.org/2000/svg" xmlns:xlink="http://www.w3.org/1999/xlink" x="0px" y="0px" viewBox="0 0 400 400"
	 style="enable-background:new 0 0 400 400;" xml:space="preserve">
<style type="text/css">
	.st0{fill:none;stroke:#FFFFFF;stroke-width:11;stroke-linejoin:round;}
	.st1{fill:none;stroke:#FFFFFF;stroke-width:11;stroke-linecap:round;}
</style>
<g id="g1">
	<path id="polygon1" class="st0" d="M192.7,88.4L121.5,150c-1.9,1.6-4.3,2.6-6.9,2.6H42.5c-5.8,0-10.5,4.7-10.5,10.5v80.8
		c0,5.8,4.7,10.5,10.5,10.5h70.9c2.5,0,5,0.9,6.9,2.6l72.5,62.7c6.8,5.9,17.4,1.1,17.4-7.9V96.4C210.1,87.4,199.5,82.6,192.7,88.4z"
		/>
	<path id="path1" class="st1" d="M256.7,261.5C267,245,273,225.6,273,204.7c0-21.2-6.2-40.9-16.8-57.6"/>
	<path id="path2" class="st1" d="M293.8,109.5c19.7,26.6,31.4,59.5,31.4,95.1c0,35.3-11.5,67.9-30.9,94.4"/>
	<path id="path1_1_" class="st1" d="M329.1,333.9c28.1-35.6,44.9-80.4,44.9-129.2c0-49.2-17-94.3-45.4-130"/>
</g>
</svg>
